<svg xmlns="http://www.w3.org/2000/svg" width="130" height="30" fill="none"><path fill="#000" d="M42.927 6.952v14.08h7.722v2.32H40v-16.4h2.927ZM53.311 11.638h2.78v11.714h-2.78V11.638Zm1.402-1.78c-.508 0-.934-.164-1.279-.492-.344-.328-.516-.719-.516-1.172 0-.484.172-.89.516-1.218.345-.328.77-.492 1.28-.492.49 0 .909.164 1.253.492.345.328.517.734.517 1.218 0 .453-.172.844-.517 1.172a1.752 1.752 0 0 1-1.254.492ZM59.763 11.638h2.508l.197 1.101c.41-.39.893-.695 1.45-.914a4.65 4.65 0 0 1 1.82-.35c.82 0 1.558.163 2.214.491a3.935 3.935 0 0 1 1.599 1.382c.426-.609 1.008-1.07 1.746-1.382a5.805 5.805 0 0 1 2.386-.492c.967 0 1.803.195 2.508.586a3.878 3.878 0 0 1 1.672 1.687c.394.734.59 1.655.59 2.764v6.841H75.65v-6.49c0-.983-.221-1.725-.664-2.225-.426-.5-1.058-.75-1.894-.75-.852 0-1.516.258-1.992.773-.475.5-.713 1.25-.713 2.25v6.442h-2.78v-6.49c0-.983-.204-1.725-.614-2.225-.393-.5-1.008-.75-1.844-.75-.853 0-1.5.258-1.943.773-.443.5-.664 1.242-.664 2.226v6.466h-2.78V11.638ZM87.031 23.516c-1.23 0-2.312-.258-3.246-.773a5.605 5.605 0 0 1-2.164-2.155c-.509-.922-.763-1.984-.763-3.187 0-1.14.254-2.155.763-3.045a5.574 5.574 0 0 1 2.115-2.109c.901-.515 1.926-.773 3.074-.773 1.164 0 2.189.242 3.074.726a5.168 5.168 0 0 1 2.066 2.039c.508.859.762 1.858.762 2.998 0 .188-.008.39-.024.61-.017.203-.041.421-.074.655h-8.755a3.37 3.37 0 0 0 .54 1.43c.296.39.665.695 1.107.913.443.219.951.328 1.525.328.689 0 1.303-.132 1.845-.398.557-.265.942-.617 1.155-1.054l2.435.773c-.492.937-1.221 1.679-2.189 2.226-.967.53-2.05.796-3.246.796Zm2.656-7.169a2.453 2.453 0 0 0-.418-1.312 2.716 2.716 0 0 0-1.033-.914 2.912 2.912 0 0 0-1.426-.351c-.46 0-.894.11-1.304.328-.41.219-.762.523-1.057.914-.279.375-.46.82-.541 1.335h5.78ZM103.349 23.516a9.52 9.52 0 0 1-3.418-.609 8.707 8.707 0 0 1-2.804-1.71 8.392 8.392 0 0 1-1.869-2.648c-.442-1.03-.664-2.163-.664-3.397 0-1.218.222-2.335.664-3.35a8.318 8.318 0 0 1 1.87-2.67 8.498 8.498 0 0 1 2.803-1.734 9.52 9.52 0 0 1 3.418-.61c1.214 0 2.345.204 3.394.61a8.223 8.223 0 0 1 2.779 1.733 7.823 7.823 0 0 1 1.869 2.671c.46 1.015.689 2.132.689 3.35 0 1.234-.229 2.367-.689 3.397a7.883 7.883 0 0 1-1.869 2.648 8.42 8.42 0 0 1-2.779 1.71c-1.049.406-2.18.61-3.394.61Zm0-2.366c1.115 0 2.107-.242 2.976-.726a5.325 5.325 0 0 0 2.041-2.085c.492-.906.738-1.968.738-3.187 0-1.234-.246-2.296-.738-3.186a5.165 5.165 0 0 0-2.041-2.062c-.869-.5-1.861-.75-2.976-.75-1.114 0-2.106.25-2.975.75a5.335 5.335 0 0 0-2.066 2.062c-.492.89-.738 1.952-.738 3.186 0 1.219.246 2.28.738 3.187a5.504 5.504 0 0 0 2.066 2.085c.869.484 1.861.726 2.975.726ZM116.733 18.854c.098.437.287.836.565 1.195.295.343.681.617 1.156.82.492.203 1.074.304 1.746.304 1.033 0 1.804-.226 2.312-.68.508-.468.763-1.014.763-1.64 0-.515-.164-.944-.492-1.288-.312-.343-.754-.632-1.328-.866-.574-.25-1.23-.485-1.968-.703a47.048 47.048 0 0 1-1.943-.586 8.816 8.816 0 0 1-1.697-.796 3.794 3.794 0 0 1-1.18-1.242c-.295-.516-.435-1.156-.418-1.921 0-1 .246-1.843.738-2.53.491-.703 1.18-1.234 2.065-1.594.886-.359 1.902-.539 3.05-.539.967 0 1.836.133 2.607.399.787.25 1.451.624 1.992 1.124a4.399 4.399 0 0 1 1.205 1.804l-2.681.844a1.934 1.934 0 0 0-.59-.914 3.047 3.047 0 0 0-1.107-.656 4.444 4.444 0 0 0-1.401-.258c-.558-.015-1.058.063-1.501.235-.426.171-.77.421-1.033.75a1.66 1.66 0 0 0-.393 1.1c0 .485.148.867.443 1.148.295.266.68.492 1.156.68.491.172 1.032.351 1.623.539.688.187 1.369.406 2.041.656a7.86 7.86 0 0 1 1.869.913 4.2 4.2 0 0 1 1.377 1.383c.345.562.517 1.265.517 2.108 0 .906-.222 1.726-.664 2.46-.427.734-1.082 1.32-1.968 1.757-.885.438-1.984.656-3.295.656-1.066 0-2.041-.148-2.927-.445-.869-.312-1.598-.75-2.189-1.312a4.171 4.171 0 0 1-1.131-2.038l2.681-.867ZM12.347 18.225c.534-.534 1.448-.156 1.448.6v6.444c0 .489-.414.88-.898.81a11.135 11.135 0 0 1-5.05-2.078c-.395-.292-.413-.863-.066-1.21l4.566-4.566ZM15.37 18.825c0-.756.913-1.134 1.447-.6l4.496 4.496c.344.344.33.91-.058 1.205a11.138 11.138 0 0 1-4.976 2.126c-.488.078-.91-.314-.91-.808v-6.42ZM10.634 15.664c.756 0 1.134.913.6 1.448l-4.56 4.56c-.348.348-.922.328-1.213-.069a11.133 11.133 0 0 1-2.046-5.044c-.067-.483.323-.895.81-.895h6.41ZM24.774 15.664c.488 0 .878.412.811.895a11.132 11.132 0 0 1-1.973 4.942c-.288.403-.866.426-1.217.075l-4.464-4.464c-.535-.535-.156-1.448.6-1.448h6.243ZM5.574 8.246c.294-.389.86-.403 1.205-.059l4.455 4.455c.534.534.156 1.447-.6 1.447H4.263c-.495 0-.888-.423-.808-.912a11.138 11.138 0 0 1 2.12-4.931ZM22.291 8.281c.347-.347.918-.33 1.21.065a11.135 11.135 0 0 1 2.044 4.831c.08.489-.313.912-.808.912H18.53c-.755 0-1.133-.913-.6-1.447l4.361-4.36ZM15.37 4.756c0-.494.42-.886.909-.808 1.784.285 3.427.99 4.824 2.013.398.291.417.865.069 1.213l-4.355 4.354c-.534.534-1.447.156-1.447-.6V4.757ZM12.897 3.921c.485-.07.898.321.898.81v6.198c0 .755-.914 1.133-1.448.6L7.924 7.104c-.35-.351-.328-.93.075-1.218a11.132 11.132 0 0 1 4.898-1.966Z"/><path fill="#000" fill-rule="evenodd" d="M14.5.5C22.508.5 29 6.992 29 15s-6.492 14.5-14.5 14.5S0 23.008 0 15 6.492.5 14.5.5Zm0 1.442C7.288 1.942 1.442 7.788 1.442 15S7.288 28.058 14.5 28.058 27.558 22.212 27.558 15 21.712 1.942 14.5 1.942Z" clip-rule="evenodd"/></svg>